# xmcd
#
# Track frame offsets:
#	150
#	17556
#	34565
#	50942
#	65804
#	80091
#	96758
#	115217
#	133577
#	153886
#	169340
#	183406
#	196794
#	214771
#
# Disc length: 3105 seconds
#
# Revision: 1
# Processed by: cddbd v1.5.2PL0 Copyright (c) Steve Scherf et al.
# Submitted via: audiograbber 1.83.01
#
DISCID=c20c1f0e
DTITLE=Colbie Caillat - Coco
DYEAR=2007
DGENRE=
TTITLE0=Oxygen
TTITLE1=The Little Things
TTITLE2=One Fine Wire
TTITLE3=Bubbly
TTITLE4=Feelings Show
TTITLE5=Midnight Bottle
TTITLE6=Realize
TTITLE7=Battle
TTITLE8=Tailor Made
TTITLE9=Magic
TTITLE10=Tied Down
TTITLE11=Capri
TTITLE12=Older (Bonus Track)
TTITLE13=Dreams Colide (Bonus Track)
EXTD=
EXTT0=
EXTT1=
EXTT2=
EXTT3=
EXTT4=
EXTT5=
EXTT6=
EXTT7=
EXTT8=
EXTT9=
EXTT10=
EXTT11=
EXTT12=
EXTT13=
PLAYORDER=
